<svg xmlns="http://www.w3.org/2000/svg" viewBox="0 0 61.95 30.22"><path  d="M35.14,0c.79,0,1.36.4,1.36,1.12s-.55,1.1-1.34,1.1-1.35-.4-1.35-1.12S34.35,0,35.14,0Zm0,1.67c.58,0,.95-.21.95-.57s-.33-.55-.91-.55-.94.21-.94.57S34.56,1.67,35.13,1.67Zm.71,1.14V5.08h-.52V2.81Zm-.86,0V5.08h-.52V2.81Zm.86,3V8.1h-.52V5.83Zm-.86,0V8.1h-.52V5.83ZM35.8,10a.71.71,0,0,1-.71-.57.69.69,0,0,1-.66.57c-.45,0-1-.56-1.27-.56s-.33.13-.33.37a1.22,1.22,0,0,0,.05.35l-.5.09a1.3,1.3,0,0,1-.1-.52c0-.56.27-.94.79-.94s.95.54,1.29.54.47-.23.47-.62h.49a1.16,1.16,0,0,0,0,.18.43.43,0,0,0,.41.43c.38,0,.83-.54,1.26-.54a.85.85,0,0,1,.86,1,1.28,1.28,0,0,1-.1.5l-.5-.09a1.25,1.25,0,0,0,.05-.37.32.32,0,0,0-.3-.35C36.68,9.48,36.24,10,35.8,10Zm.63,1.33a.34.34,0,0,1-.36.36.37.37,0,0,1-.4-.4A.34.34,0,0,1,36,11,.37.37,0,0,1,36.43,11.38Zm-1.87,0a.34.34,0,0,1-.36.36.37.37,0,0,1-.4-.4.34.34,0,0,1,.36-.36A.37.37,0,0,1,34.56,11.38Zm1.87,1.56a.34.34,0,0,1-.36.36.37.37,0,0,1-.4-.4.34.34,0,0,1,.36-.36A.37.37,0,0,1,36.43,12.94Zm-1.87,0a.34.34,0,0,1-.36.36.37.37,0,0,1-.4-.4.34.34,0,0,1,.36-.36A.37.37,0,0,1,34.56,12.94Zm1.87,1.56a.34.34,0,0,1-.36.36.37.37,0,0,1-.4-.4A.34.34,0,0,1,36,14.1.37.37,0,0,1,36.43,14.5Zm-1.87,0a.34.34,0,0,1-.36.36.37.37,0,0,1-.4-.4.34.34,0,0,1,.36-.36A.37.37,0,0,1,34.56,14.5Zm1.87,1.56a.34.34,0,0,1-.36.36.37.37,0,0,1-.4-.4.34.34,0,0,1,.36-.36A.37.37,0,0,1,36.43,16.06Zm-1.87,0a.34.34,0,0,1-.36.36.37.37,0,0,1-.4-.4.34.34,0,0,1,.36-.36A.37.37,0,0,1,34.56,16.06Zm1.87,1.56a.34.34,0,0,1-.36.36.37.37,0,0,1-.4-.4.34.34,0,0,1,.36-.36A.37.37,0,0,1,36.43,17.62Zm-1.87,0a.34.34,0,0,1-.36.36.37.37,0,0,1-.4-.4.34.34,0,0,1,.36-.36A.37.37,0,0,1,34.56,17.62Zm1.87,1.56a.34.34,0,0,1-.36.36.37.37,0,0,1-.4-.4.34.34,0,0,1,.36-.36A.37.37,0,0,1,36.43,19.18Zm-1.87,0a.34.34,0,0,1-.36.36.37.37,0,0,1-.4-.4.34.34,0,0,1,.36-.36A.37.37,0,0,1,34.56,19.18Zm1.87,1.56a.34.34,0,0,1-.36.36.37.37,0,0,1-.4-.4.34.34,0,0,1,.36-.36A.37.37,0,0,1,36.43,20.75Zm-1.87,0a.34.34,0,0,1-.36.36.37.37,0,0,1-.4-.4.34.34,0,0,1,.36-.36A.37.37,0,0,1,34.56,20.75Zm1.87,1.56a.34.34,0,0,1-.36.36.37.37,0,0,1-.4-.4.34.34,0,0,1,.36-.36A.37.37,0,0,1,36.43,22.31Zm-1.87,0a.34.34,0,0,1-.36.36.37.37,0,0,1-.4-.4.34.34,0,0,1,.36-.36A.37.37,0,0,1,34.56,22.31Zm1.87,1.56a.34.34,0,0,1-.36.36.37.37,0,0,1-.4-.4.34.34,0,0,1,.36-.36A.37.37,0,0,1,36.43,23.87Zm-1.87,0a.34.34,0,0,1-.36.36.37.37,0,0,1-.4-.4.34.34,0,0,1,.36-.36A.37.37,0,0,1,34.56,23.87Zm1.87,1.56a.34.34,0,0,1-.36.36.37.37,0,0,1-.4-.4A.34.34,0,0,1,36,25,.37.37,0,0,1,36.43,25.43Zm-1.87,0a.34.34,0,0,1-.36.36.37.37,0,0,1-.4-.4.34.34,0,0,1,.36-.36A.37.37,0,0,1,34.56,25.43ZM36.43,27a.34.34,0,0,1-.36.36.37.37,0,0,1-.4-.4A.34.34,0,0,1,36,26.6.37.37,0,0,1,36.43,27Zm-1.87,0a.34.34,0,0,1-.36.36.37.37,0,0,1-.4-.4.34.34,0,0,1,.36-.36A.37.37,0,0,1,34.56,27Zm1.87,0a.34.34,0,0,1-.36.36.37.37,0,0,1-.4-.4A.34.34,0,0,1,36,26.6.37.37,0,0,1,36.43,27Zm-1.87,0a.34.34,0,0,1-.36.36.37.37,0,0,1-.4-.4.34.34,0,0,1,.36-.36A.37.37,0,0,1,34.56,27Zm-.34,1.14.94,1.19.93-1.19.43.36-1.36,1.73-1.36-1.73ZM0,14.15H1.59l1.07,2.94c.18.51.39,1.32.39,1.32a9.31,9.31,0,0,1,.45-1.32l1.41-3h.15l1.43,3a9.31,9.31,0,0,1,.45,1.32s.2-.82.39-1.32l1.06-2.94H9.85L7.19,21.54H7L5.39,18A11.06,11.06,0,0,1,5,16.92s-.23.68-.42,1.09L2.85,21.54H2.7Zm13.47-.06h.13l3.35,7.39H15.36L15,20.64H12l-.34.83H10.25Zm1,5.3L14,18.11c-.22-.52-.44-1.31-.44-1.31a13.24,13.24,0,0,1-.43,1.31l-.53,1.27Zm9.94,2.09H22.67l-1.21-1.85a2.89,2.89,0,0,1-.43,0h-.52v1.82H19V14.15h2c2,0,3.27,1,3.27,2.77a2.28,2.28,0,0,1-1.41,2.27ZM21,18.34c1.23,0,1.77-.39,1.77-1.42S22.2,15.48,21,15.48h-.47v2.86ZM32.1,21.47H30.36l-1.21-1.85a2.89,2.89,0,0,1-.43,0H28.2v1.82H26.7V14.15h2c2,0,3.27,1,3.27,2.77a2.28,2.28,0,0,1-1.41,2.27Zm-3.42-3.13c1.23,0,1.77-.39,1.77-1.42s-.56-1.44-1.77-1.44H28.2v2.86Zm8.91-.53a3.79,3.79,0,1,1,3.79,3.76A3.71,3.71,0,0,1,37.59,17.81Zm6,0a2.25,2.25,0,1,0-4.48,0,2.25,2.25,0,1,0,4.48,0Zm9.31,3.66H51.19L50,19.62a2.9,2.9,0,0,1-.43,0H49v1.82H47.53V14.15h2c2,0,3.27,1,3.27,2.77a2.28,2.28,0,0,1-1.41,2.27Zm-3.42-3.13c1.23,0,1.77-.39,1.77-1.42s-.56-1.44-1.77-1.44H49v2.86Zm5,2.24.86-.52c.17.29.32.54.68.54s.57-.14.57-.66V16.35H57.7v3.6a1.43,1.43,0,0,1-1.58,1.59A1.64,1.64,0,0,1,54.55,20.58Zm3.73-.11.86-.5a1.15,1.15,0,0,0,1,.64c.44,0,.72-.22.72-.52s-.29-.49-.77-.7l-.26-.11c-.76-.32-1.27-.73-1.27-1.59a1.41,1.41,0,0,1,1.54-1.39,1.56,1.56,0,0,1,1.5.84l-.82.53a.72.72,0,0,0-.68-.45.46.46,0,0,0-.51.45c0,.32.2.44.65.64l.26.11c.9.38,1.4.78,1.4,1.66s-.75,1.47-1.75,1.47A2,2,0,0,1,58.28,20.46Z"/></svg>
