<svg xmlns="http://www.w3.org/2000/svg" viewBox="0 0 8.85 23.34"><path  d="M4.52,0C5.77,0,6.69.63,6.69,1.79S5.81,3.54,4.57,3.54,2.43,2.91,2.43,1.75,3.28,0,4.52,0Zm0,2.64c.92,0,1.51-.33,1.51-.9S5.48.87,4.57.87s-1.51.33-1.51.9S3.58,2.64,4.5,2.64ZM5.64,4.46V8.06H4.81V4.46Zm-1.35,0V8.06H3.45V4.46Zm1.27,6.69a1.11,1.11,0,0,1-1.11-.92,1.11,1.11,0,0,1-1,.92c-.72,0-1.53-.9-2-.9-.31,0-.52.2-.52.59a1.78,1.78,0,0,0,.09.55l-.79.13A2.23,2.23,0,0,1,0,10.69c0-.87.44-1.51,1.25-1.51s1.51.85,2,.85S4,9.66,4,9h.79c0,.11,0,.2,0,.28.07.44.33.7.66.7.61,0,1.31-.85,2-.85a1.35,1.35,0,0,1,1.35,1.53,2.16,2.16,0,0,1-.15.79l-.76-.11A1.87,1.87,0,0,0,8,10.79a.5.5,0,0,0-.48-.55C7,10.25,6.25,11.14,5.55,11.14Zm1,2.12a.54.54,0,0,1-.57.57.59.59,0,0,1-.63-.63.54.54,0,0,1,.57-.57A.59.59,0,0,1,6.56,13.26Zm-3,0a.54.54,0,0,1-.57.57.59.59,0,0,1-.63-.63.54.54,0,0,1,.57-.57A.59.59,0,0,1,3.58,13.26Zm3,2.47A.54.54,0,0,1,6,16.3a.59.59,0,0,1-.63-.63.54.54,0,0,1,.57-.57A.59.59,0,0,1,6.56,15.73Zm-3,0A.54.54,0,0,1,3,16.3a.59.59,0,0,1-.63-.63.54.54,0,0,1,.57-.57A.59.59,0,0,1,3.58,15.73Zm3,2.49a.54.54,0,0,1-.57.57.59.59,0,0,1-.63-.63.54.54,0,0,1,.57-.57A.59.59,0,0,1,6.56,18.22Zm-3,0a.54.54,0,0,1-.57.57.59.59,0,0,1-.63-.63.54.54,0,0,1,.57-.57A.59.59,0,0,1,3.58,18.22Zm3-5a.54.54,0,0,1-.57.57.59.59,0,0,1-.63-.63.54.54,0,0,1,.57-.57A.59.59,0,0,1,6.56,13.26Zm-3,0a.54.54,0,0,1-.57.57.59.59,0,0,1-.63-.63.54.54,0,0,1,.57-.57A.59.59,0,0,1,3.58,13.26Zm3,2.47A.54.54,0,0,1,6,16.3a.59.59,0,0,1-.63-.63.54.54,0,0,1,.57-.57A.59.59,0,0,1,6.56,15.73Zm-3,0A.54.54,0,0,1,3,16.3a.59.59,0,0,1-.63-.63.54.54,0,0,1,.57-.57A.59.59,0,0,1,3.58,15.73Zm3,2.49a.54.54,0,0,1-.57.57.59.59,0,0,1-.63-.63.54.54,0,0,1,.57-.57A.59.59,0,0,1,6.56,18.22Zm-3,0a.54.54,0,0,1-.57.57.59.59,0,0,1-.63-.63.54.54,0,0,1,.57-.57A.59.59,0,0,1,3.58,18.22Zm3,0a.54.54,0,0,1-.57.57.59.59,0,0,1-.63-.63.54.54,0,0,1,.57-.57A.59.59,0,0,1,6.56,18.22Zm-3,0a.54.54,0,0,1-.57.57.59.59,0,0,1-.63-.63.54.54,0,0,1,.57-.57A.59.59,0,0,1,3.58,18.22ZM3.06,20l1.49,1.9L6,20l.68.57L4.54,23.34,2.38,20.58Z"/></svg>
